<svg xmlns="http://www.w3.org/2000/svg" xmlns:xlink="http://www.w3.org/1999/xlink" contentStyleType="text/css" height="837px" preserveAspectRatio="none" style="width:1093px;height:837px;background:#FFFFFF;" version="1.1" viewBox="0 0 1093 837" width="1093px" zoomAndPan="magnify"><defs/><g><!--cluster a0669f9bf20b2076d739aaf788966921--><g id="cluster_a0669f9bf20b2076d739aaf788966921"><path d="M501.5,6 L542.5,6 A3.75,3.75 0 0 1 545,8.5 L552,28.2969 L598.5,28.2969 A2.5,2.5 0 0 1 601,30.7969 L601,133.39 A2.5,2.5 0 0 1 598.5,135.89 L501.5,135.89 A2.5,2.5 0 0 1 499,133.39 L499,8.5 A2.5,2.5 0 0 1 501.5,6 " fill="none" style="stroke:#000000;stroke-width:1.5;"/><line style="stroke:#000000;stroke-width:1.5;" x1="499" x2="552" y1="28.2969" y2="28.2969"/><text fill="#000000" font-family="sans-serif" font-size="14" font-weight="bold" lengthAdjust="spacing" textLength="40" x="503" y="20.9951">Aipe/</text></g><!--cluster cd2b2cd44849828d88a282690831d76e--><g id="cluster_cd2b2cd44849828d88a282690831d76e"><path d="M8.5,561.56 L94.5,561.56 A3.75,3.75 0 0 1 97,564.06 L104,583.8569 L359.5,583.8569 A2.5,2.5 0 0 1 362,586.3569 L362,827.84 A2.5,2.5 0 0 1 359.5,830.34 L8.5,830.34 A2.5,2.5 0 0 1 6,827.84 L6,564.06 A2.5,2.5 0 0 1 8.5,561.56 " fill="none" style="stroke:#000000;stroke-width:1.5;"/><line style="stroke:#000000;stroke-width:1.5;" x1="6" x2="104" y1="583.8569" y2="583.8569"/><text fill="#000000" font-family="sans-serif" font-size="14" font-weight="bold" lengthAdjust="spacing" textLength="85" x="10" y="576.5551">aimodules/</text></g><!--cluster b2d1a00783ba49fe183157e2a1e7edf7--><g id="cluster_b2d1a00783ba49fe183157e2a1e7edf7"><path d="M732.5,561.56 L787.5,561.56 A3.75,3.75 0 0 1 790,564.06 L797,583.8569 L1083.5,583.8569 A2.5,2.5 0 0 1 1086,586.3569 L1086,827.84 A2.5,2.5 0 0 1 1083.5,830.34 L732.5,830.34 A2.5,2.5 0 0 1 730,827.84 L730,564.06 A2.5,2.5 0 0 1 732.5,561.56 " fill="none" style="stroke:#000000;stroke-width:1.5;"/><line style="stroke:#000000;stroke-width:1.5;" x1="730" x2="797" y1="583.8569" y2="583.8569"/><text fill="#000000" font-family="sans-serif" font-size="14" font-weight="bold" lengthAdjust="spacing" textLength="54" x="734" y="576.5551">nodes/</text></g><!--entity fc5f674310f2a85b88ca9cd3d10a9707--><g id="elem_fc5f674310f2a85b88ca9cd3d10a9707"><rect fill="#F1F1F1" height="78.8906" rx="2.5" ry="2.5" style="stroke:#181818;stroke-width:0.5;" width="70" x="515" y="41"/><rect fill="#F1F1F1" height="10" style="stroke:#181818;stroke-width:0.5;" width="15" x="565" y="46"/><rect fill="#F1F1F1" height="2" style="stroke:#181818;stroke-width:0.5;" width="4" x="563" y="48"/><rect fill="#F1F1F1" height="2" style="stroke:#181818;stroke-width:0.5;" width="4" x="563" y="52"/><text fill="#000000" font-family="sans-serif" font-size="14" font-weight="bold" lengthAdjust="spacing" textLength="30" x="530" y="73.9951">urls</text><text fill="#000000" font-family="sans-serif" font-size="14" lengthAdjust="spacing" textLength="4" x="530" y="90.292">&#160;</text><text fill="#000000" font-family="sans-serif" font-size="14" lengthAdjust="spacing" textLength="4" x="530" y="106.5889">&#160;</text></g><!--entity e94254a364cb474bd35240526afc1ac0--><g id="elem_e94254a364cb474bd35240526afc1ac0"><rect fill="#F1F1F1" height="78.8906" rx="2.5" ry="2.5" style="stroke:#181818;stroke-width:0.5;" width="80" x="22" y="596.56"/><rect fill="#F1F1F1" height="10" style="stroke:#181818;stroke-width:0.5;" width="15" x="82" y="601.56"/><rect fill="#F1F1F1" height="2" style="stroke:#181818;stroke-width:0.5;" width="4" x="80" y="603.56"/><rect fill="#F1F1F1" height="2" style="stroke:#181818;stroke-width:0.5;" width="4" x="80" y="607.56"/><text fill="#000000" font-family="sans-serif" font-size="14" font-weight="bold" lengthAdjust="spacing" textLength="40" x="37" y="629.5551">tests</text><text fill="#000000" font-family="sans-serif" font-size="14" lengthAdjust="spacing" textLength="4" x="37" y="645.852">&#160;</text><text fill="#000000" font-family="sans-serif" font-size="14" lengthAdjust="spacing" textLength="4" x="37" y="662.1489">&#160;</text></g><!--entity 56eb8a5ee957e6ff40e0d044423a378b--><g id="elem_56eb8a5ee957e6ff40e0d044423a378b"><rect fill="#F1F1F1" height="78.8906" rx="2.5" ry="2.5" style="stroke:#181818;stroke-width:0.5;" width="78" x="137" y="596.56"/><rect fill="#F1F1F1" height="10" style="stroke:#181818;stroke-width:0.5;" width="15" x="195" y="601.56"/><rect fill="#F1F1F1" height="2" style="stroke:#181818;stroke-width:0.5;" width="4" x="193" y="603.56"/><rect fill="#F1F1F1" height="2" style="stroke:#181818;stroke-width:0.5;" width="4" x="193" y="607.56"/><text fill="#000000" font-family="sans-serif" font-size="14" font-weight="bold" lengthAdjust="spacing" textLength="38" x="152" y="629.5551">apps</text><text fill="#000000" font-family="sans-serif" font-size="14" lengthAdjust="spacing" textLength="4" x="152" y="645.852">&#160;</text><text fill="#000000" font-family="sans-serif" font-size="14" lengthAdjust="spacing" textLength="4" x="152" y="662.1489">&#160;</text></g><!--entity 53950d53ab6d779296f3d863e78ed39c--><g id="elem_53950d53ab6d779296f3d863e78ed39c"><rect fill="#F1F1F1" height="78.8906" rx="2.5" ry="2.5" style="stroke:#181818;stroke-width:0.5;" width="97" x="249.5" y="596.56"/><rect fill="#F1F1F1" height="10" style="stroke:#181818;stroke-width:0.5;" width="15" x="326.5" y="601.56"/><rect fill="#F1F1F1" height="2" style="stroke:#181818;stroke-width:0.5;" width="4" x="324.5" y="603.56"/><rect fill="#F1F1F1" height="2" style="stroke:#181818;stroke-width:0.5;" width="4" x="324.5" y="607.56"/><text fill="#000000" font-family="sans-serif" font-size="14" font-weight="bold" lengthAdjust="spacing" textLength="57" x="264.5" y="629.5551">models</text><text fill="#000000" font-family="sans-serif" font-size="14" lengthAdjust="spacing" textLength="4" x="264.5" y="645.852">&#160;</text><text fill="#000000" font-family="sans-serif" font-size="14" lengthAdjust="spacing" textLength="4" x="264.5" y="662.1489">&#160;</text></g><!--entity 96e5db59cca4d7ae6280e37361bf0fb2--><g id="elem_96e5db59cca4d7ae6280e37361bf0fb2"><rect fill="#F1F1F1" height="78.8906" rx="2.5" ry="2.5" style="stroke:#181818;stroke-width:0.5;" width="87" x="21.5" y="735.45"/><rect fill="#F1F1F1" height="10" style="stroke:#181818;stroke-width:0.5;" width="15" x="88.5" y="740.45"/><rect fill="#F1F1F1" height="2" style="stroke:#181818;stroke-width:0.5;" width="4" x="86.5" y="742.45"/><rect fill="#F1F1F1" height="2" style="stroke:#181818;stroke-width:0.5;" width="4" x="86.5" y="746.45"/><text fill="#000000" font-family="sans-serif" font-size="14" font-weight="bold" lengthAdjust="spacing" textLength="47" x="36.5" y="768.4451">admin</text><text fill="#000000" font-family="sans-serif" font-size="14" lengthAdjust="spacing" textLength="4" x="36.5" y="784.742">&#160;</text><text fill="#000000" font-family="sans-serif" font-size="14" lengthAdjust="spacing" textLength="4" x="36.5" y="801.0389">&#160;</text></g><!--entity 51f1c85e85742b1ac9387a94b6d0b28a--><g id="elem_51f1c85e85742b1ac9387a94b6d0b28a"><rect fill="#F1F1F1" height="78.8906" rx="2.5" ry="2.5" style="stroke:#181818;stroke-width:0.5;" width="80" x="877" y="596.56"/><rect fill="#F1F1F1" height="10" style="stroke:#181818;stroke-width:0.5;" width="15" x="937" y="601.56"/><rect fill="#F1F1F1" height="2" style="stroke:#181818;stroke-width:0.5;" width="4" x="935" y="603.56"/><rect fill="#F1F1F1" height="2" style="stroke:#181818;stroke-width:0.5;" width="4" x="935" y="607.56"/><text fill="#000000" font-family="sans-serif" font-size="14" font-weight="bold" lengthAdjust="spacing" textLength="40" x="892" y="629.5551">tests</text><text fill="#000000" font-family="sans-serif" font-size="14" lengthAdjust="spacing" textLength="4" x="892" y="645.852">&#160;</text><text fill="#000000" font-family="sans-serif" font-size="14" lengthAdjust="spacing" textLength="4" x="892" y="662.1489">&#160;</text></g><!--entity 1d8a4f478b3c3f9ce0dde725fbe28ee6--><g id="elem_1d8a4f478b3c3f9ce0dde725fbe28ee6"><rect fill="#F1F1F1" height="78.8906" rx="2.5" ry="2.5" style="stroke:#181818;stroke-width:0.5;" width="78" x="992" y="596.56"/><rect fill="#F1F1F1" height="10" style="stroke:#181818;stroke-width:0.5;" width="15" x="1050" y="601.56"/><rect fill="#F1F1F1" height="2" style="stroke:#181818;stroke-width:0.5;" width="4" x="1048" y="603.56"/><rect fill="#F1F1F1" height="2" style="stroke:#181818;stroke-width:0.5;" width="4" x="1048" y="607.56"/><text fill="#000000" font-family="sans-serif" font-size="14" font-weight="bold" lengthAdjust="spacing" textLength="38" x="1007" y="629.5551">apps</text><text fill="#000000" font-family="sans-serif" font-size="14" lengthAdjust="spacing" textLength="4" x="1007" y="645.852">&#160;</text><text fill="#000000" font-family="sans-serif" font-size="14" lengthAdjust="spacing" textLength="4" x="1007" y="662.1489">&#160;</text></g><!--entity 4f7e55a834dc62bf250d8f668b42c2ef--><g id="elem_4f7e55a834dc62bf250d8f668b42c2ef"><rect fill="#F1F1F1" height="78.8906" rx="2.5" ry="2.5" style="stroke:#181818;stroke-width:0.5;" width="97" x="745.5" y="596.56"/><rect fill="#F1F1F1" height="10" style="stroke:#181818;stroke-width:0.5;" width="15" x="822.5" y="601.56"/><rect fill="#F1F1F1" height="2" style="stroke:#181818;stroke-width:0.5;" width="4" x="820.5" y="603.56"/><rect fill="#F1F1F1" height="2" style="stroke:#181818;stroke-width:0.5;" width="4" x="820.5" y="607.56"/><text fill="#000000" font-family="sans-serif" font-size="14" font-weight="bold" lengthAdjust="spacing" textLength="57" x="760.5" y="629.5551">models</text><text fill="#000000" font-family="sans-serif" font-size="14" lengthAdjust="spacing" textLength="4" x="760.5" y="645.852">&#160;</text><text fill="#000000" font-family="sans-serif" font-size="14" lengthAdjust="spacing" textLength="4" x="760.5" y="662.1489">&#160;</text></g><!--entity 546db4867d60f2b3a826a8435105d58f--><g id="elem_546db4867d60f2b3a826a8435105d58f"><rect fill="#F1F1F1" height="78.8906" rx="2.5" ry="2.5" style="stroke:#181818;stroke-width:0.5;" width="87" x="873.5" y="735.45"/><rect fill="#F1F1F1" height="10" style="stroke:#181818;stroke-width:0.5;" width="15" x="940.5" y="740.45"/><rect fill="#F1F1F1" height="2" style="stroke:#181818;stroke-width:0.5;" width="4" x="938.5" y="742.45"/><rect fill="#F1F1F1" height="2" style="stroke:#181818;stroke-width:0.5;" width="4" x="938.5" y="746.45"/><text fill="#000000" font-family="sans-serif" font-size="14" font-weight="bold" lengthAdjust="spacing" textLength="47" x="888.5" y="768.4451">admin</text><text fill="#000000" font-family="sans-serif" font-size="14" lengthAdjust="spacing" textLength="4" x="888.5" y="784.742">&#160;</text><text fill="#000000" font-family="sans-serif" font-size="14" lengthAdjust="spacing" textLength="4" x="888.5" y="801.0389">&#160;</text></g><!--entity 38aff4a02b9d0409a5913694be8ff9d6--><g id="elem_38aff4a02b9d0409a5913694be8ff9d6"><rect fill="#F1F1F1" height="78.8906" rx="2.5" ry="2.5" style="stroke:#181818;stroke-width:0.5;" width="335" x="378.5" y="735.45"/><rect fill="#F1F1F1" height="10" style="stroke:#181818;stroke-width:0.5;" width="15" x="693.5" y="740.45"/><rect fill="#F1F1F1" height="2" style="stroke:#181818;stroke-width:0.5;" width="4" x="691.5" y="742.45"/><rect fill="#F1F1F1" height="2" style="stroke:#181818;stroke-width:0.5;" width="4" x="691.5" y="746.45"/><text fill="#000000" font-family="sans-serif" font-size="14" font-weight="bold" lengthAdjust="spacing" textLength="295" x="393.5" y="768.4451">base/model_base/TimeStampedModel</text><text fill="#000000" font-family="sans-serif" font-size="14" lengthAdjust="spacing" textLength="4" x="393.5" y="784.742">&#160;</text><text fill="#000000" font-family="sans-serif" font-size="14" lengthAdjust="spacing" textLength="4" x="393.5" y="801.0389">&#160;</text></g><!--entity b09ce5589727a92b9bf94f0d30a7d087--><g id="elem_b09ce5589727a92b9bf94f0d30a7d087"><rect fill="#F1F1F1" height="78.8906" rx="2.5" ry="2.5" style="stroke:#181818;stroke-width:0.5;" width="98" x="501" y="179.89"/><rect fill="#F1F1F1" height="10" style="stroke:#181818;stroke-width:0.5;" width="15" x="579" y="184.89"/><rect fill="#F1F1F1" height="2" style="stroke:#181818;stroke-width:0.5;" width="4" x="577" y="186.89"/><rect fill="#F1F1F1" height="2" style="stroke:#181818;stroke-width:0.5;" width="4" x="577" y="190.89"/><text fill="#000000" font-family="sans-serif" font-size="14" font-weight="bold" lengthAdjust="spacing" textLength="58" x="516" y="212.8851">api/urls</text><text fill="#000000" font-family="sans-serif" font-size="14" lengthAdjust="spacing" textLength="4" x="516" y="229.182">&#160;</text><text fill="#000000" font-family="sans-serif" font-size="14" lengthAdjust="spacing" textLength="4" x="516" y="245.4789">&#160;</text></g><!--entity da945d6a40f015564cb1bdaf8a7098de--><g id="elem_da945d6a40f015564cb1bdaf8a7098de"><rect fill="#F1F1F1" height="78.8906" rx="2.5" ry="2.5" style="stroke:#181818;stroke-width:0.5;" width="263" x="273.5" y="318.78"/><rect fill="#F1F1F1" height="10" style="stroke:#181818;stroke-width:0.5;" width="15" x="516.5" y="323.78"/><rect fill="#F1F1F1" height="2" style="stroke:#181818;stroke-width:0.5;" width="4" x="514.5" y="325.78"/><rect fill="#F1F1F1" height="2" style="stroke:#181818;stroke-width:0.5;" width="4" x="514.5" y="329.78"/><text fill="#000000" font-family="sans-serif" font-size="14" font-weight="bold" lengthAdjust="spacing" textLength="223" x="288.5" y="351.7751">api/viewset/Module_Viewset</text><text fill="#000000" font-family="sans-serif" font-size="14" lengthAdjust="spacing" textLength="4" x="288.5" y="368.072">&#160;</text><text fill="#000000" font-family="sans-serif" font-size="14" lengthAdjust="spacing" textLength="4" x="288.5" y="384.3689">&#160;</text></g><!--entity 8e797010ac5b61e293def4c1d9425f67--><g id="elem_8e797010ac5b61e293def4c1d9425f67"><rect fill="#F1F1F1" height="78.8906" rx="2.5" ry="2.5" style="stroke:#181818;stroke-width:0.5;" width="247" x="571.5" y="318.78"/><rect fill="#F1F1F1" height="10" style="stroke:#181818;stroke-width:0.5;" width="15" x="798.5" y="323.78"/><rect fill="#F1F1F1" height="2" style="stroke:#181818;stroke-width:0.5;" width="4" x="796.5" y="325.78"/><rect fill="#F1F1F1" height="2" style="stroke:#181818;stroke-width:0.5;" width="4" x="796.5" y="329.78"/><text fill="#000000" font-family="sans-serif" font-size="14" font-weight="bold" lengthAdjust="spacing" textLength="207" x="586.5" y="351.7751">api/viewset/Nood_Viewset</text><text fill="#000000" font-family="sans-serif" font-size="14" lengthAdjust="spacing" textLength="4" x="586.5" y="368.072">&#160;</text><text fill="#000000" font-family="sans-serif" font-size="14" lengthAdjust="spacing" textLength="4" x="586.5" y="384.3689">&#160;</text></g><!--entity 370c1e113a8bb0894f62983828704487--><g id="elem_370c1e113a8bb0894f62983828704487"><rect fill="#F1F1F1" height="78.8906" rx="2.5" ry="2.5" style="stroke:#181818;stroke-width:0.5;" width="268" x="535" y="457.67"/><rect fill="#F1F1F1" height="10" style="stroke:#181818;stroke-width:0.5;" width="15" x="783" y="462.67"/><rect fill="#F1F1F1" height="2" style="stroke:#181818;stroke-width:0.5;" width="4" x="781" y="464.67"/><rect fill="#F1F1F1" height="2" style="stroke:#181818;stroke-width:0.5;" width="4" x="781" y="468.67"/><text fill="#000000" font-family="sans-serif" font-size="14" font-weight="bold" lengthAdjust="spacing" textLength="228" x="550" y="490.6651">api/serializer/Nood_Serializer</text><text fill="#000000" font-family="sans-serif" font-size="14" lengthAdjust="spacing" textLength="4" x="550" y="506.962">&#160;</text><text fill="#000000" font-family="sans-serif" font-size="14" lengthAdjust="spacing" textLength="4" x="550" y="523.2589">&#160;</text></g><!--entity 10def373b1a89e000f82fd478bcdbc41--><g id="elem_10def373b1a89e000f82fd478bcdbc41"><rect fill="#F1F1F1" height="78.8906" rx="2.5" ry="2.5" style="stroke:#181818;stroke-width:0.5;" width="284" x="119" y="457.67"/><rect fill="#F1F1F1" height="10" style="stroke:#181818;stroke-width:0.5;" width="15" x="383" y="462.67"/><rect fill="#F1F1F1" height="2" style="stroke:#181818;stroke-width:0.5;" width="4" x="381" y="464.67"/><rect fill="#F1F1F1" height="2" style="stroke:#181818;stroke-width:0.5;" width="4" x="381" y="468.67"/><text fill="#000000" font-family="sans-serif" font-size="14" font-weight="bold" lengthAdjust="spacing" textLength="244" x="134" y="490.6651">api/serializer/Module_Serializer</text><text fill="#000000" font-family="sans-serif" font-size="14" lengthAdjust="spacing" textLength="4" x="134" y="506.962">&#160;</text><text fill="#000000" font-family="sans-serif" font-size="14" lengthAdjust="spacing" textLength="4" x="134" y="523.2589">&#160;</text></g><!--link fc5f674310f2a85b88ca9cd3d10a9707 to b09ce5589727a92b9bf94f0d30a7d087--><g id="link_fc5f674310f2a85b88ca9cd3d10a9707_b09ce5589727a92b9bf94f0d30a7d087"><path codeLine="83" d="M550,120.3 C550,138.96 550,155.24 550,173.85 " fill="none" id="fc5f674310f2a85b88ca9cd3d10a9707-to-b09ce5589727a92b9bf94f0d30a7d087" style="stroke:#181818;stroke-width:1.0;"/><polygon fill="#181818" points="550,179.85,554,170.85,550,174.85,546,170.85,550,179.85" style="stroke:#181818;stroke-width:1.0;"/></g><!--link 53950d53ab6d779296f3d863e78ed39c to 38aff4a02b9d0409a5913694be8ff9d6--><g id="link_53950d53ab6d779296f3d863e78ed39c_38aff4a02b9d0409a5913694be8ff9d6"><path codeLine="84" d="M347,664.05 C383.7,684.31 429.1869,709.4209 470.2469,732.0809 " fill="none" id="53950d53ab6d779296f3d863e78ed39c-to-38aff4a02b9d0409a5913694be8ff9d6" style="stroke:#181818;stroke-width:1.0;"/><polygon fill="#181818" points="475.5,734.98,469.553,727.1293,471.1224,732.5641,465.6876,734.1335,475.5,734.98" style="stroke:#181818;stroke-width:1.0;"/></g><!--link b09ce5589727a92b9bf94f0d30a7d087 to 8e797010ac5b61e293def4c1d9425f67--><g id="link_b09ce5589727a92b9bf94f0d30a7d087_8e797010ac5b61e293def4c1d9425f67"><path codeLine="85" d="M591.16,259.19 C610.84,277.77 629.9681,295.8201 649.6181,314.3801 " fill="none" id="b09ce5589727a92b9bf94f0d30a7d087-to-8e797010ac5b61e293def4c1d9425f67" style="stroke:#181818;stroke-width:1.0;"/><polygon fill="#181818" points="653.98,318.5,650.1838,309.4122,650.3451,315.0667,644.6905,315.228,653.98,318.5" style="stroke:#181818;stroke-width:1.0;"/></g><!--link b09ce5589727a92b9bf94f0d30a7d087 to da945d6a40f015564cb1bdaf8a7098de--><g id="link_b09ce5589727a92b9bf94f0d30a7d087_da945d6a40f015564cb1bdaf8a7098de"><path codeLine="86" d="M508.84,259.19 C489.16,277.77 470.0319,295.8201 450.3819,314.3801 " fill="none" id="b09ce5589727a92b9bf94f0d30a7d087-to-da945d6a40f015564cb1bdaf8a7098de" style="stroke:#181818;stroke-width:1.0;"/><polygon fill="#181818" points="446.02,318.5,455.3095,315.228,449.6549,315.0667,449.8162,309.4122,446.02,318.5" style="stroke:#181818;stroke-width:1.0;"/></g><!--link da945d6a40f015564cb1bdaf8a7098de to 53950d53ab6d779296f3d863e78ed39c--><g id="link_da945d6a40f015564cb1bdaf8a7098de_53950d53ab6d779296f3d863e78ed39c"><path codeLine="87" d="M419.17,397.93 C430.41,435.29 441.05,492.51 420,536.56 C404.8,568.36 378.8561,590.0131 351.8861,606.7731 " fill="none" id="da945d6a40f015564cb1bdaf8a7098de-to-53950d53ab6d779296f3d863e78ed39c" style="stroke:#181818;stroke-width:1.0;"/><polygon fill="#181818" points="346.79,609.94,356.5455,608.5871,351.0368,607.3009,352.323,601.7922,346.79,609.94" style="stroke:#181818;stroke-width:1.0;"/></g><!--link da945d6a40f015564cb1bdaf8a7098de to 10def373b1a89e000f82fd478bcdbc41--><g id="link_da945d6a40f015564cb1bdaf8a7098de_10def373b1a89e000f82fd478bcdbc41"><path codeLine="88" d="M364.12,398.08 C344.5,416.74 325.3979,434.8853 305.8279,453.4953 " fill="none" id="da945d6a40f015564cb1bdaf8a7098de-to-10def373b1a89e000f82fd478bcdbc41" style="stroke:#181818;stroke-width:1.0;"/><polygon fill="#181818" points="301.48,457.63,310.7584,454.3266,305.1033,454.1845,305.2455,448.5294,301.48,457.63" style="stroke:#181818;stroke-width:1.0;"/></g><!--link 8e797010ac5b61e293def4c1d9425f67 to 4f7e55a834dc62bf250d8f668b42c2ef--><g id="link_8e797010ac5b61e293def4c1d9425f67_4f7e55a834dc62bf250d8f668b42c2ef"><path codeLine="89" d="M766.22,398.08 C787.52,413.59 808.3,433.56 820,457.67 C841.47,501.9 828.7144,553.4917 814.1344,590.7917 " fill="none" id="8e797010ac5b61e293def4c1d9425f67-to-4f7e55a834dc62bf250d8f668b42c2ef" style="stroke:#181818;stroke-width:1.0;"/><polygon fill="#181818" points="811.95,596.38,818.952,589.4539,813.7703,591.7231,811.501,586.5414,811.95,596.38" style="stroke:#181818;stroke-width:1.0;"/></g><!--link 8e797010ac5b61e293def4c1d9425f67 to 370c1e113a8bb0894f62983828704487--><g id="link_8e797010ac5b61e293def4c1d9425f67_370c1e113a8bb0894f62983828704487"><path codeLine="90" d="M687.62,398.08 C684.08,416.74 680.9582,433.1251 677.4282,451.7351 " fill="none" id="8e797010ac5b61e293def4c1d9425f67-to-370c1e113a8bb0894f62983828704487" style="stroke:#181818;stroke-width:1.0;"/><polygon fill="#181818" points="676.31,457.63,681.9172,449.5331,677.2418,452.7176,674.0573,448.0422,676.31,457.63" style="stroke:#181818;stroke-width:1.0;"/></g><!--link 370c1e113a8bb0894f62983828704487 to 4f7e55a834dc62bf250d8f668b42c2ef--><g id="link_370c1e113a8bb0894f62983828704487_4f7e55a834dc62bf250d8f668b42c2ef"><path codeLine="91" d="M704.49,536.97 C721.52,555.63 737.8246,573.4789 754.8146,592.0889 " fill="none" id="370c1e113a8bb0894f62983828704487-to-4f7e55a834dc62bf250d8f668b42c2ef" style="stroke:#181818;stroke-width:1.0;"/><polygon fill="#181818" points="758.86,596.52,755.746,587.1764,755.4888,592.8274,749.8378,592.5702,758.86,596.52" style="stroke:#181818;stroke-width:1.0;"/></g><!--link 10def373b1a89e000f82fd478bcdbc41 to 53950d53ab6d779296f3d863e78ed39c--><g id="link_10def373b1a89e000f82fd478bcdbc41_53950d53ab6d779296f3d863e78ed39c"><path codeLine="92" d="M271.5,536.97 C276.55,555.63 281.0045,572.1178 286.0345,590.7278 " fill="none" id="10def373b1a89e000f82fd478bcdbc41-to-53950d53ab6d779296f3d863e78ed39c" style="stroke:#181818;stroke-width:1.0;"/><polygon fill="#181818" points="287.6,596.52,289.1131,586.7881,286.2954,591.6932,281.3903,588.8754,287.6,596.52" style="stroke:#181818;stroke-width:1.0;"/></g><!--link 4f7e55a834dc62bf250d8f668b42c2ef to 38aff4a02b9d0409a5913694be8ff9d6--><g id="link_4f7e55a834dc62bf250d8f668b42c2ef_38aff4a02b9d0409a5913694be8ff9d6"><path codeLine="93" d="M745,664.05 C708.3,684.31 662.8131,709.4209 621.7531,732.0809 " fill="none" id="4f7e55a834dc62bf250d8f668b42c2ef-to-38aff4a02b9d0409a5913694be8ff9d6" style="stroke:#181818;stroke-width:1.0;"/><polygon fill="#181818" points="616.5,734.98,626.3124,734.1335,620.8776,732.5641,622.447,727.1293,616.5,734.98" style="stroke:#181818;stroke-width:1.0;"/></g><!--SRC=[ZPJBRXin34NtynL6bm62K6zoKw0Va6vIT5CK0ILImQ1-8NQQeaN_lVBOTH8uYRmRpO2N5E-vm_Fvwd4n_XgNTqDPBTQhfIwtCuTSgsUmcGGy40SoBfBFYhMInDctuU8YyqQl5YlH-Utq-6LSwCsM5skLwztRYujX6BuFQou_-4vd7pwDQxtwCEFDZ256gfIhXMmXHKcEc6j2fFR1cjcVPxFK4cfCtXcebZ5anC9Kn8a1fWHfckNXVhuvzFlxr977Djx3N3VxjaLijaMyHqzeKH3Peeq4w8oag2_QAdaRFBleI_R9Pt71UWWsSYs62qnjjxhP_k_xL1gYPkIWIY5fR8i4XRP6xwrZbp1FfRnUlrBfA804nxdj996bM9rWT9fGnL6PAgULdzPIr20vK2di9R56Yw0kkMXoXPhjlgiinkLnKK_56QXe24Z99gPcUwxaAuW3JWAO3YEFLyyM_LGjJ3v8P0yLJ0YxbPaiN94J48eUgt-E-hZHxTNrPCljr_tnH0yrDMURloNaQDII4ws-6Dbvqc0uqVkyMicRQYv1CMgCOymPiDqhMaBN24ZDb6Tts-ZzoFFnjzxl1M-EvnDD0ssYjjni64a1eAAjufkvHNBnvZNDmwLFL8-uBfkn1rIp5SC02LrcJrLDGxJ1PDbeKgdf1Qh1L5CmA8RaRPkeaCFcecyGjNmXluEg4MHVTtExucfZ04GqjILdjQWQtqRLrzI0ONHUIhGjoWrSh35YzhPOhU-X6doKx34cYItKkHdJOeNU1GD10jPNKEt-1IxbycCNuw4Ri4ccz_iRkd6PP7eOdodJIzVGZTyaqxlwcJ8zyeTkU2UP7ZvdolIoFNJ3VzuqtRoVj-9kQCx2xny0]--></g></svg>