<svg xmlns="http://www.w3.org/2000/svg" xmlns:xlink="http://www.w3.org/1999/xlink" contentStyleType="text/css" height="619px" preserveAspectRatio="none" style="width:2102px;height:619px;background:#FFFFFF;" version="1.1" viewBox="0 0 2102 619" width="2102px" zoomAndPan="magnify"><defs/><g><!--cluster d77d5e503ad1439f585ac494268b351b--><g id="cluster_d77d5e503ad1439f585ac494268b351b"><polygon fill="none" points="16,16,26,6,238,6,238,501.48,228,511.48,16,511.48,16,16" style="stroke:#181818;stroke-width:1.0;"/><line style="stroke:#181818;stroke-width:1.0;" x1="228" x2="238" y1="16" y2="6"/><line style="stroke:#181818;stroke-width:1.0;" x1="16" x2="228" y1="16" y2="16"/><line style="stroke:#181818;stroke-width:1.0;" x1="228" x2="228" y1="16" y2="511.48"/><text fill="#000000" font-family="sans-serif" font-size="14" font-weight="bold" lengthAdjust="spacing" textLength="21" x="112.5" y="31.9951">Db</text></g><!--cluster 2b9afb89a6acc1575b159bfca38d10ad--><g id="cluster_2b9afb89a6acc1575b159bfca38d10ad"><polygon fill="none" points="262,16,272,6,826,6,826,501.48,816,511.48,262,511.48,262,16" style="stroke:#181818;stroke-width:1.0;"/><line style="stroke:#181818;stroke-width:1.0;" x1="816" x2="826" y1="16" y2="6"/><line style="stroke:#181818;stroke-width:1.0;" x1="262" x2="816" y1="16" y2="16"/><line style="stroke:#181818;stroke-width:1.0;" x1="816" x2="816" y1="16" y2="511.48"/><text fill="#000000" font-family="sans-serif" font-size="14" font-weight="bold" lengthAdjust="spacing" textLength="54" x="513" y="31.9951">Django</text></g><!--cluster 266a1f7c2e2345169d3bc448da45eae6--><g id="cluster_266a1f7c2e2345169d3bc448da45eae6"><polygon fill="none" points="850,16,860,6,1182,6,1182,501.48,1172,511.48,850,511.48,850,16" style="stroke:#181818;stroke-width:1.0;"/><line style="stroke:#181818;stroke-width:1.0;" x1="1172" x2="1182" y1="16" y2="6"/><line style="stroke:#181818;stroke-width:1.0;" x1="850" x2="1172" y1="16" y2="16"/><line style="stroke:#181818;stroke-width:1.0;" x1="1172" x2="1172" y1="16" y2="511.48"/><text fill="#000000" font-family="sans-serif" font-size="14" font-weight="bold" lengthAdjust="spacing" textLength="44" x="990" y="31.9951">React</text></g><!--cluster ee434023cf89d7dfb21f63d64f0f9d74--><g id="cluster_ee434023cf89d7dfb21f63d64f0f9d74"><polygon fill="none" points="1206,16,1216,6,2043,6,2043,501.48,2033,511.48,1206,511.48,1206,16" style="stroke:#181818;stroke-width:1.0;"/><line style="stroke:#181818;stroke-width:1.0;" x1="2033" x2="2043" y1="16" y2="6"/><line style="stroke:#181818;stroke-width:1.0;" x1="1206" x2="2033" y1="16" y2="16"/><line style="stroke:#181818;stroke-width:1.0;" x1="2033" x2="2033" y1="16" y2="511.48"/><text fill="#000000" font-family="sans-serif" font-size="14" font-weight="bold" lengthAdjust="spacing" textLength="44" x="1598.5" y="31.9951">Nginx</text></g><!--entity 355aeb7ac3f8fa43e8d94fbf0e4b8d6c--><g id="elem_355aeb7ac3f8fa43e8d94fbf0e4b8d6c"><rect fill="#F1F1F1" height="95.1875" rx="2.5" ry="2.5" style="stroke:#181818;stroke-width:0.5;" width="176" x="39" y="46"/><rect fill="#F1F1F1" height="10" style="stroke:#181818;stroke-width:0.5;" width="15" x="195" y="51"/><rect fill="#F1F1F1" height="2" style="stroke:#181818;stroke-width:0.5;" width="4" x="193" y="53"/><rect fill="#F1F1F1" height="2" style="stroke:#181818;stroke-width:0.5;" width="4" x="193" y="57"/><text fill="#000000" font-family="sans-serif" font-size="14" font-weight="bold" lengthAdjust="spacing" textLength="20" x="54" y="78.9951">db</text><text fill="#000000" font-family="sans-serif" font-size="14" lengthAdjust="spacing" textLength="4" x="54" y="95.292">&#160;</text><text fill="#000000" font-family="sans-serif" font-size="14" lengthAdjust="spacing" textLength="136" x="54" y="111.5889">image: postgres:13</text><text fill="#000000" font-family="sans-serif" font-size="14" lengthAdjust="spacing" textLength="4" x="54" y="127.8857">&#160;</text></g><!--entity d5baecb173d637b4e1f821d6b00b6f89--><g id="elem_d5baecb173d637b4e1f821d6b00b6f89"><rect fill="#F1F1F1" height="39.2969" rx="2.5" ry="2.5" style="stroke:#181818;stroke-width:0.5;" width="189" x="32.5" y="456.19"/><polygon fill="#F1F1F1" points="204.5,461.19,204.5,475.19,216.5,475.19,216.5,467.19,210.5,461.19,204.5,461.19" style="stroke:#181818;stroke-width:0.5;"/><line style="stroke:#181818;stroke-width:0.5;" x1="210.5" x2="210.5" y1="461.19" y2="467.19"/><line style="stroke:#181818;stroke-width:0.5;" x1="216.5" x2="210.5" y1="467.19" y2="467.19"/><text fill="#000000" font-family="sans-serif" font-size="14" lengthAdjust="spacing" textLength="159" x="42.5" y="482.1851">/var/lib/postgresql/data</text></g><!--entity 7daba1d4c5af8b430797c813253fd1ba--><g id="elem_7daba1d4c5af8b430797c813253fd1ba"><rect fill="#F1F1F1" height="95.1875" rx="2.5" ry="2.5" style="stroke:#181818;stroke-width:0.5;" width="531" x="278.5" y="46"/><rect fill="#F1F1F1" height="10" style="stroke:#181818;stroke-width:0.5;" width="15" x="789.5" y="51"/><rect fill="#F1F1F1" height="2" style="stroke:#181818;stroke-width:0.5;" width="4" x="787.5" y="53"/><rect fill="#F1F1F1" height="2" style="stroke:#181818;stroke-width:0.5;" width="4" x="787.5" y="57"/><text fill="#000000" font-family="sans-serif" font-size="14" font-weight="bold" lengthAdjust="spacing" textLength="53" x="293.5" y="78.9951">django</text><text fill="#000000" font-family="sans-serif" font-size="14" lengthAdjust="spacing" textLength="4" x="293.5" y="95.292">&#160;</text><text fill="#000000" font-family="sans-serif" font-size="14" lengthAdjust="spacing" textLength="491" x="293.5" y="111.5889">environment: DATABASE_URL=postgres://user:password@db/dbname</text><text fill="#000000" font-family="sans-serif" font-size="14" lengthAdjust="spacing" textLength="4" x="293.5" y="127.8857">&#160;</text></g><!--entity b3805e9f4a0415dcade79ec961391f71--><g id="elem_b3805e9f4a0415dcade79ec961391f71"><rect fill="#F1F1F1" height="39.2969" rx="2.5" ry="2.5" style="stroke:#181818;stroke-width:0.5;" width="70" x="509" y="456.19"/><polygon fill="#F1F1F1" points="562,461.19,562,475.19,574,475.19,574,467.19,568,461.19,562,461.19" style="stroke:#181818;stroke-width:0.5;"/><line style="stroke:#181818;stroke-width:0.5;" x1="568" x2="568" y1="461.19" y2="467.19"/><line style="stroke:#181818;stroke-width:0.5;" x1="574" x2="568" y1="467.19" y2="467.19"/><text fill="#000000" font-family="sans-serif" font-size="14" lengthAdjust="spacing" textLength="40" x="519" y="482.1851">/code</text></g><!--entity 05de6822fa09071a70dfeebfb323cc7c--><g id="elem_05de6822fa09071a70dfeebfb323cc7c"><rect fill="#F1F1F1" height="95.1875" rx="2.5" ry="2.5" style="stroke:#181818;stroke-width:0.5;" width="299" x="866.5" y="46"/><rect fill="#F1F1F1" height="10" style="stroke:#181818;stroke-width:0.5;" width="15" x="1145.5" y="51"/><rect fill="#F1F1F1" height="2" style="stroke:#181818;stroke-width:0.5;" width="4" x="1143.5" y="53"/><rect fill="#F1F1F1" height="2" style="stroke:#181818;stroke-width:0.5;" width="4" x="1143.5" y="57"/><text fill="#000000" font-family="sans-serif" font-size="14" font-weight="bold" lengthAdjust="spacing" textLength="41" x="881.5" y="78.9951">react</text><text fill="#000000" font-family="sans-serif" font-size="14" lengthAdjust="spacing" textLength="4" x="881.5" y="95.292">&#160;</text><text fill="#000000" font-family="sans-serif" font-size="14" lengthAdjust="spacing" textLength="259" x="881.5" y="111.5889">environment: NODE_ENV=production</text><text fill="#000000" font-family="sans-serif" font-size="14" lengthAdjust="spacing" textLength="4" x="881.5" y="127.8857">&#160;</text></g><!--entity 2103a837e6b7f536b4e50c6f87542e47--><g id="elem_2103a837e6b7f536b4e50c6f87542e47"><rect fill="#F1F1F1" height="39.2969" rx="2.5" ry="2.5" style="stroke:#181818;stroke-width:0.5;" width="61" x="877.5" y="456.19"/><polygon fill="#F1F1F1" points="921.5,461.19,921.5,475.19,933.5,475.19,933.5,467.19,927.5,461.19,921.5,461.19" style="stroke:#181818;stroke-width:0.5;"/><line style="stroke:#181818;stroke-width:0.5;" x1="927.5" x2="927.5" y1="461.19" y2="467.19"/><line style="stroke:#181818;stroke-width:0.5;" x1="933.5" x2="927.5" y1="467.19" y2="467.19"/><text fill="#000000" font-family="sans-serif" font-size="14" lengthAdjust="spacing" textLength="31" x="887.5" y="482.1851">/app</text></g><!--entity 3971a3b16c58c327e6e4ab6cf5960db9--><g id="elem_3971a3b16c58c327e6e4ab6cf5960db9"><rect fill="#F1F1F1" height="39.2969" rx="2.5" ry="2.5" style="stroke:#181818;stroke-width:0.5;" width="169" x="982.5" y="456.19"/><polygon fill="#F1F1F1" points="1134.5,461.19,1134.5,475.19,1146.5,475.19,1146.5,467.19,1140.5,461.19,1134.5,461.19" style="stroke:#181818;stroke-width:0.5;"/><line style="stroke:#181818;stroke-width:0.5;" x1="1140.5" x2="1140.5" y1="461.19" y2="467.19"/><line style="stroke:#181818;stroke-width:0.5;" x1="1146.5" x2="1140.5" y1="467.19" y2="467.19"/><text fill="#000000" font-family="sans-serif" font-size="14" lengthAdjust="spacing" textLength="139" x="992.5" y="482.1851">/app/node_modules</text></g><!--entity af7a7f0b3b2e57bd500b4dc604f1838f--><g id="elem_af7a7f0b3b2e57bd500b4dc604f1838f"><rect fill="#F1F1F1" height="95.1875" rx="2.5" ry="2.5" style="stroke:#181818;stroke-width:0.5;" width="174" x="1623" y="46"/><rect fill="#F1F1F1" height="10" style="stroke:#181818;stroke-width:0.5;" width="15" x="1777" y="51"/><rect fill="#F1F1F1" height="2" style="stroke:#181818;stroke-width:0.5;" width="4" x="1775" y="53"/><rect fill="#F1F1F1" height="2" style="stroke:#181818;stroke-width:0.5;" width="4" x="1775" y="57"/><text fill="#000000" font-family="sans-serif" font-size="14" font-weight="bold" lengthAdjust="spacing" textLength="43" x="1638" y="78.9951">nginx</text><text fill="#000000" font-family="sans-serif" font-size="14" lengthAdjust="spacing" textLength="4" x="1638" y="95.292">&#160;</text><text fill="#000000" font-family="sans-serif" font-size="14" lengthAdjust="spacing" textLength="134" x="1638" y="111.5889">image: nginx:alpine</text><text fill="#000000" font-family="sans-serif" font-size="14" lengthAdjust="spacing" textLength="4" x="1638" y="127.8857">&#160;</text></g><!--entity 97b04832e42a04c7beb04c21e560b3fb--><g id="elem_97b04832e42a04c7beb04c21e560b3fb"><ellipse cx="1919" cy="231.19" fill="#F1F1F1" rx="8" ry="8" style="stroke:#181818;stroke-width:0.5;"/><text fill="#000000" font-family="sans-serif" font-size="14" lengthAdjust="spacing" textLength="18" x="1910" y="261.1851">80</text></g><!--entity 2fa7aee62485704c3e604f816b6a321d--><g id="elem_2fa7aee62485704c3e604f816b6a321d"><rect fill="#F1F1F1" height="39.2969" rx="2.5" ry="2.5" style="stroke:#181818;stroke-width:0.5;" width="147" x="1222.5" y="456.19"/><polygon fill="#F1F1F1" points="1352.5,461.19,1352.5,475.19,1364.5,475.19,1364.5,467.19,1358.5,461.19,1352.5,461.19" style="stroke:#181818;stroke-width:0.5;"/><line style="stroke:#181818;stroke-width:0.5;" x1="1358.5" x2="1358.5" y1="461.19" y2="467.19"/><line style="stroke:#181818;stroke-width:0.5;" x1="1364.5" x2="1358.5" y1="467.19" y2="467.19"/><text fill="#000000" font-family="sans-serif" font-size="14" lengthAdjust="spacing" textLength="117" x="1232.5" y="482.1851">/etc/nginx/conf.d</text></g><!--entity cc3b4e3dd2862d8f06e8e09545e4c00b--><g id="elem_cc3b4e3dd2862d8f06e8e09545e4c00b"><rect fill="#F1F1F1" height="39.2969" rx="2.5" ry="2.5" style="stroke:#181818;stroke-width:0.5;" width="178" x="1405" y="456.19"/><polygon fill="#F1F1F1" points="1566,461.19,1566,475.19,1578,475.19,1578,467.19,1572,461.19,1566,461.19" style="stroke:#181818;stroke-width:0.5;"/><line style="stroke:#181818;stroke-width:0.5;" x1="1572" x2="1572" y1="461.19" y2="467.19"/><line style="stroke:#181818;stroke-width:0.5;" x1="1578" x2="1572" y1="467.19" y2="467.19"/><text fill="#000000" font-family="sans-serif" font-size="14" lengthAdjust="spacing" textLength="148" x="1415" y="482.1851">/usr/share/nginx/html</text></g><!--entity b9ecd9e1c451463d693c48a0a741e71a--><g id="elem_b9ecd9e1c451463d693c48a0a741e71a"><rect fill="#F1F1F1" height="39.2969" rx="2.5" ry="2.5" style="stroke:#181818;stroke-width:0.5;" width="185" x="1617.5" y="456.19"/><polygon fill="#F1F1F1" points="1785.5,461.19,1785.5,475.19,1797.5,475.19,1797.5,467.19,1791.5,461.19,1785.5,461.19" style="stroke:#181818;stroke-width:0.5;"/><line style="stroke:#181818;stroke-width:0.5;" x1="1791.5" x2="1791.5" y1="461.19" y2="467.19"/><line style="stroke:#181818;stroke-width:0.5;" x1="1797.5" x2="1791.5" y1="467.19" y2="467.19"/><text fill="#000000" font-family="sans-serif" font-size="14" lengthAdjust="spacing" textLength="155" x="1627.5" y="482.1851">/usr/share/nginx/static</text></g><!--entity 7d3d8a3f1ed96ab758b9ab0a1819fa73--><g id="elem_7d3d8a3f1ed96ab758b9ab0a1819fa73"><rect fill="#F1F1F1" height="39.2969" rx="2.5" ry="2.5" style="stroke:#181818;stroke-width:0.5;" width="190" x="1837" y="456.19"/><polygon fill="#F1F1F1" points="2010,461.19,2010,475.19,2022,475.19,2022,467.19,2016,461.19,2010,461.19" style="stroke:#181818;stroke-width:0.5;"/><line style="stroke:#181818;stroke-width:0.5;" x1="2016" x2="2016" y1="461.19" y2="467.19"/><line style="stroke:#181818;stroke-width:0.5;" x1="2022" x2="2016" y1="467.19" y2="467.19"/><text fill="#000000" font-family="sans-serif" font-size="14" lengthAdjust="spacing" textLength="160" x="1847" y="482.1851">/usr/share/nginx/media</text></g><!--entity 1b3bff591894c324e6d0194254b68417--><g id="elem_1b3bff591894c324e6d0194254b68417"><rect fill="#F1F1F1" height="39.2969" rx="2.5" ry="2.5" style="stroke:#181818;stroke-width:0.5;" width="129" x="62.5" y="574.48"/><polygon fill="#F1F1F1" points="174.5,579.48,174.5,593.48,186.5,593.48,186.5,585.48,180.5,579.48,174.5,579.48" style="stroke:#181818;stroke-width:0.5;"/><line style="stroke:#181818;stroke-width:0.5;" x1="180.5" x2="180.5" y1="579.48" y2="585.48"/><line style="stroke:#181818;stroke-width:0.5;" x1="186.5" x2="180.5" y1="585.48" y2="585.48"/><text fill="#000000" font-family="sans-serif" font-size="14" lengthAdjust="spacing" textLength="99" x="72.5" y="600.4751">postgres_data</text></g><!--entity c736ae51c797ba3ce8a3cf6a17fbb16c--><g id="elem_c736ae51c797ba3ce8a3cf6a17fbb16c"><rect fill="#F1F1F1" height="39.2969" rx="2.5" ry="2.5" style="stroke:#181818;stroke-width:0.5;" width="99" x="494.5" y="574.48"/><polygon fill="#F1F1F1" points="576.5,579.48,576.5,593.48,588.5,593.48,588.5,585.48,582.5,579.48,576.5,579.48" style="stroke:#181818;stroke-width:0.5;"/><line style="stroke:#181818;stroke-width:0.5;" x1="582.5" x2="582.5" y1="579.48" y2="585.48"/><line style="stroke:#181818;stroke-width:0.5;" x1="588.5" x2="582.5" y1="585.48" y2="585.48"/><text fill="#000000" font-family="sans-serif" font-size="14" lengthAdjust="spacing" textLength="69" x="504.5" y="600.4751">./backend</text></g><!--entity e7cd945be4bdf31a4f4dc346681d335c--><g id="elem_e7cd945be4bdf31a4f4dc346681d335c"><rect fill="#F1F1F1" height="39.2969" rx="2.5" ry="2.5" style="stroke:#181818;stroke-width:0.5;" width="98" x="854" y="574.48"/><polygon fill="#F1F1F1" points="935,579.48,935,593.48,947,593.48,947,585.48,941,579.48,935,579.48" style="stroke:#181818;stroke-width:0.5;"/><line style="stroke:#181818;stroke-width:0.5;" x1="941" x2="941" y1="579.48" y2="585.48"/><line style="stroke:#181818;stroke-width:0.5;" x1="947" x2="941" y1="585.48" y2="585.48"/><text fill="#000000" font-family="sans-serif" font-size="14" lengthAdjust="spacing" textLength="68" x="864" y="600.4751">./frontend</text></g><!--entity 064242fa3bde007755d4cd6d540f1e1f--><g id="elem_064242fa3bde007755d4cd6d540f1e1f"><rect fill="#F1F1F1" height="39.2969" rx="2.5" ry="2.5" style="stroke:#181818;stroke-width:0.5;" width="169" x="986.5" y="574.48"/><polygon fill="#F1F1F1" points="1138.5,579.48,1138.5,593.48,1150.5,593.48,1150.5,585.48,1144.5,579.48,1138.5,579.48" style="stroke:#181818;stroke-width:0.5;"/><line style="stroke:#181818;stroke-width:0.5;" x1="1144.5" x2="1144.5" y1="579.48" y2="585.48"/><line style="stroke:#181818;stroke-width:0.5;" x1="1150.5" x2="1144.5" y1="585.48" y2="585.48"/><text fill="#000000" font-family="sans-serif" font-size="14" lengthAdjust="spacing" textLength="139" x="996.5" y="600.4751">/app/node_modules</text></g><!--entity 160eeec9a8aa24ba030c792f06f67d69--><g id="elem_160eeec9a8aa24ba030c792f06f67d69"><rect fill="#F1F1F1" height="39.2969" rx="2.5" ry="2.5" style="stroke:#181818;stroke-width:0.5;" width="76" x="1258" y="574.48"/><polygon fill="#F1F1F1" points="1317,579.48,1317,593.48,1329,593.48,1329,585.48,1323,579.48,1317,579.48" style="stroke:#181818;stroke-width:0.5;"/><line style="stroke:#181818;stroke-width:0.5;" x1="1323" x2="1323" y1="579.48" y2="585.48"/><line style="stroke:#181818;stroke-width:0.5;" x1="1329" x2="1323" y1="585.48" y2="585.48"/><text fill="#000000" font-family="sans-serif" font-size="14" lengthAdjust="spacing" textLength="46" x="1268" y="600.4751">./nginx</text></g><!--entity 282eb61165f6369cdf86e66980a13547--><g id="elem_282eb61165f6369cdf86e66980a13547"><rect fill="#F1F1F1" height="39.2969" rx="2.5" ry="2.5" style="stroke:#181818;stroke-width:0.5;" width="136" x="1426" y="574.48"/><polygon fill="#F1F1F1" points="1545,579.48,1545,593.48,1557,593.48,1557,585.48,1551,579.48,1545,579.48" style="stroke:#181818;stroke-width:0.5;"/><line style="stroke:#181818;stroke-width:0.5;" x1="1551" x2="1551" y1="579.48" y2="585.48"/><line style="stroke:#181818;stroke-width:0.5;" x1="1557" x2="1551" y1="585.48" y2="585.48"/><text fill="#000000" font-family="sans-serif" font-size="14" lengthAdjust="spacing" textLength="106" x="1436" y="600.4751">./frontend/build</text></g><!--entity 02333efa2bf4b0344924cb9dbec6e9b2--><g id="elem_02333efa2bf4b0344924cb9dbec6e9b2"><rect fill="#F1F1F1" height="39.2969" rx="2.5" ry="2.5" style="stroke:#181818;stroke-width:0.5;" width="124" x="1648" y="574.48"/><polygon fill="#F1F1F1" points="1755,579.48,1755,593.48,1767,593.48,1767,585.48,1761,579.48,1755,579.48" style="stroke:#181818;stroke-width:0.5;"/><line style="stroke:#181818;stroke-width:0.5;" x1="1761" x2="1761" y1="579.48" y2="585.48"/><line style="stroke:#181818;stroke-width:0.5;" x1="1767" x2="1761" y1="585.48" y2="585.48"/><text fill="#000000" font-family="sans-serif" font-size="14" lengthAdjust="spacing" textLength="94" x="1658" y="600.4751">static_volume</text></g><!--entity 2f4ba364d89e6f84b282d915993ddf7f--><g id="elem_2f4ba364d89e6f84b282d915993ddf7f"><rect fill="#F1F1F1" height="39.2969" rx="2.5" ry="2.5" style="stroke:#181818;stroke-width:0.5;" width="129" x="1867.5" y="574.48"/><polygon fill="#F1F1F1" points="1979.5,579.48,1979.5,593.48,1991.5,593.48,1991.5,585.48,1985.5,579.48,1979.5,579.48" style="stroke:#181818;stroke-width:0.5;"/><line style="stroke:#181818;stroke-width:0.5;" x1="1985.5" x2="1985.5" y1="579.48" y2="585.48"/><line style="stroke:#181818;stroke-width:0.5;" x1="1991.5" x2="1985.5" y1="585.48" y2="585.48"/><text fill="#000000" font-family="sans-serif" font-size="14" lengthAdjust="spacing" textLength="99" x="1877.5" y="600.4751">media_volume</text></g><!--entity dba3f4d0bb5aa6fcfa18da2c1f7a9775--><g id="elem_dba3f4d0bb5aa6fcfa18da2c1f7a9775"><ellipse cx="2086" cy="366.19" fill="#F1F1F1" rx="8" ry="8" style="stroke:#181818;stroke-width:0.5;"/><text fill="#000000" font-family="sans-serif" font-size="14" lengthAdjust="spacing" textLength="18" x="2077" y="396.1851">80</text></g><!--link d5baecb173d637b4e1f821d6b00b6f89 to 1b3bff591894c324e6d0194254b68417--><g id="link_d5baecb173d637b4e1f821d6b00b6f89_1b3bff591894c324e6d0194254b68417"><path codeLine="52" d="M127,495.78 C127,517.4 127,552.57 127,574.2 " fill="none" id="d5baecb173d637b4e1f821d6b00b6f89-1b3bff591894c324e6d0194254b68417" style="stroke:#181818;stroke-width:1.0;"/><text fill="#000000" font-family="sans-serif" font-size="13" lengthAdjust="spacing" textLength="14" x="128" y="540.5469">rw</text></g><!--link 355aeb7ac3f8fa43e8d94fbf0e4b8d6c to d5baecb173d637b4e1f821d6b00b6f89--><g id="link_355aeb7ac3f8fa43e8d94fbf0e4b8d6c_d5baecb173d637b4e1f821d6b00b6f89"><path codeLine="53" d="M127,141.6 C127,225.65 127,392.27 127,449.75 " fill="none" id="355aeb7ac3f8fa43e8d94fbf0e4b8d6c-to-d5baecb173d637b4e1f821d6b00b6f89" style="stroke:#181818;stroke-width:1.0;stroke-dasharray:7.0,7.0;"/><polygon fill="#181818" points="127,455.75,131,446.75,127,450.75,123,446.75,127,455.75" style="stroke:#181818;stroke-width:1.0;"/><text fill="#000000" font-family="sans-serif" font-size="13" lengthAdjust="spacing" textLength="23" x="128" y="303.2569">use</text></g><!--link b3805e9f4a0415dcade79ec961391f71 to c736ae51c797ba3ce8a3cf6a17fbb16c--><g id="link_b3805e9f4a0415dcade79ec961391f71_c736ae51c797ba3ce8a3cf6a17fbb16c"><path codeLine="54" d="M544,495.78 C544,517.4 544,552.57 544,574.2 " fill="none" id="b3805e9f4a0415dcade79ec961391f71-c736ae51c797ba3ce8a3cf6a17fbb16c" style="stroke:#181818;stroke-width:1.0;"/><text fill="#000000" font-family="sans-serif" font-size="13" lengthAdjust="spacing" textLength="14" x="545" y="540.5469">rw</text></g><!--link 7daba1d4c5af8b430797c813253fd1ba to b3805e9f4a0415dcade79ec961391f71--><g id="link_7daba1d4c5af8b430797c813253fd1ba_b3805e9f4a0415dcade79ec961391f71"><path codeLine="55" d="M544,141.6 C544,225.65 544,392.27 544,449.75 " fill="none" id="7daba1d4c5af8b430797c813253fd1ba-to-b3805e9f4a0415dcade79ec961391f71" style="stroke:#181818;stroke-width:1.0;stroke-dasharray:7.0,7.0;"/><polygon fill="#181818" points="544,455.75,548,446.75,544,450.75,540,446.75,544,455.75" style="stroke:#181818;stroke-width:1.0;"/><text fill="#000000" font-family="sans-serif" font-size="13" lengthAdjust="spacing" textLength="23" x="545" y="303.2569">use</text></g><!--link 2103a837e6b7f536b4e50c6f87542e47 to e7cd945be4bdf31a4f4dc346681d335c--><g id="link_2103a837e6b7f536b4e50c6f87542e47_e7cd945be4bdf31a4f4dc346681d335c"><path codeLine="56" d="M907.19,495.78 C906.26,517.4 904.74,552.57 903.81,574.2 " fill="none" id="2103a837e6b7f536b4e50c6f87542e47-e7cd945be4bdf31a4f4dc346681d335c" style="stroke:#181818;stroke-width:1.0;"/><text fill="#000000" font-family="sans-serif" font-size="13" lengthAdjust="spacing" textLength="14" x="906" y="540.5469">rw</text></g><!--link 05de6822fa09071a70dfeebfb323cc7c to 2103a837e6b7f536b4e50c6f87542e47--><g id="link_05de6822fa09071a70dfeebfb323cc7c_2103a837e6b7f536b4e50c6f87542e47"><path codeLine="57" d="M1002.65,141.6 C978.78,225.65 931.3897,392.4984 915.0597,449.9784 " fill="none" id="05de6822fa09071a70dfeebfb323cc7c-to-2103a837e6b7f536b4e50c6f87542e47" style="stroke:#181818;stroke-width:1.0;stroke-dasharray:7.0,7.0;"/><polygon fill="#181818" points="913.42,455.75,919.7273,448.1857,914.7864,450.9403,912.0318,445.9995,913.42,455.75" style="stroke:#181818;stroke-width:1.0;"/><text fill="#000000" font-family="sans-serif" font-size="13" lengthAdjust="spacing" textLength="23" x="961" y="303.2569">use</text></g><!--link 3971a3b16c58c327e6e4ab6cf5960db9 to 064242fa3bde007755d4cd6d540f1e1f--><g id="link_3971a3b16c58c327e6e4ab6cf5960db9_064242fa3bde007755d4cd6d540f1e1f"><path codeLine="58" d="M1067.65,495.78 C1068.4,517.4 1069.6,552.57 1070.35,574.2 " fill="none" id="3971a3b16c58c327e6e4ab6cf5960db9-064242fa3bde007755d4cd6d540f1e1f" style="stroke:#181818;stroke-width:1.0;"/></g><!--link 05de6822fa09071a70dfeebfb323cc7c to 3971a3b16c58c327e6e4ab6cf5960db9--><g id="link_05de6822fa09071a70dfeebfb323cc7c_3971a3b16c58c327e6e4ab6cf5960db9"><path codeLine="59" d="M1022.3,141.6 C1033.58,225.65 1055.9323,392.3233 1063.6423,449.8033 " fill="none" id="05de6822fa09071a70dfeebfb323cc7c-to-3971a3b16c58c327e6e4ab6cf5960db9" style="stroke:#181818;stroke-width:1.0;stroke-dasharray:7.0,7.0;"/><polygon fill="#181818" points="1064.44,455.75,1067.208,446.2981,1063.7753,450.7944,1059.279,447.3617,1064.44,455.75" style="stroke:#181818;stroke-width:1.0;"/><text fill="#000000" font-family="sans-serif" font-size="13" lengthAdjust="spacing" textLength="23" x="1045" y="303.2569">use</text></g><!--link af7a7f0b3b2e57bd500b4dc604f1838f to 97b04832e42a04c7beb04c21e560b3fb--><g id="link_af7a7f0b3b2e57bd500b4dc604f1838f_97b04832e42a04c7beb04c21e560b3fb"><path codeLine="60" d="M1797.24,131.74 C1819.59,142.97 1842.95,156.33 1863,171.19 C1883.88,186.66 1903.67,210.37 1913.16,222.48 " fill="none" id="af7a7f0b3b2e57bd500b4dc604f1838f-97b04832e42a04c7beb04c21e560b3fb" style="stroke:#181818;stroke-width:1.0;"/></g><!--link 97b04832e42a04c7beb04c21e560b3fb to dba3f4d0bb5aa6fcfa18da2c1f7a9775--><g id="link_97b04832e42a04c7beb04c21e560b3fb_dba3f4d0bb5aa6fcfa18da2c1f7a9775"><path codeLine="61" d="M1927.98,239.34 C1957.11,262.54 2048.77,335.53 2077.38,358.32 " fill="none" id="97b04832e42a04c7beb04c21e560b3fb-dba3f4d0bb5aa6fcfa18da2c1f7a9775" style="stroke:#181818;stroke-width:1.0;"/></g><!--link 2fa7aee62485704c3e604f816b6a321d to 160eeec9a8aa24ba030c792f06f67d69--><g id="link_2fa7aee62485704c3e604f816b6a321d_160eeec9a8aa24ba030c792f06f67d69"><path codeLine="62" d="M1296,495.78 C1296,517.4 1296,552.57 1296,574.2 " fill="none" id="2fa7aee62485704c3e604f816b6a321d-160eeec9a8aa24ba030c792f06f67d69" style="stroke:#181818;stroke-width:1.0;"/><text fill="#000000" font-family="sans-serif" font-size="13" lengthAdjust="spacing" textLength="14" x="1297" y="540.5469">rw</text></g><!--link af7a7f0b3b2e57bd500b4dc604f1838f to 2fa7aee62485704c3e604f816b6a321d--><g id="link_af7a7f0b3b2e57bd500b4dc604f1838f_2fa7aee62485704c3e604f816b6a321d"><path codeLine="63" d="M1658.82,141.6 C1567.31,225.65 1383.7789,394.2112 1321.1989,451.6912 " fill="none" id="af7a7f0b3b2e57bd500b4dc604f1838f-to-2fa7aee62485704c3e604f816b6a321d" style="stroke:#181818;stroke-width:1.0;stroke-dasharray:7.0,7.0;"/><polygon fill="#181818" points="1316.78,455.75,1326.1142,452.6078,1320.4624,452.3677,1320.7025,446.7159,1316.78,455.75" style="stroke:#181818;stroke-width:1.0;"/><text fill="#000000" font-family="sans-serif" font-size="13" lengthAdjust="spacing" textLength="23" x="1498" y="303.2569">use</text></g><!--link cc3b4e3dd2862d8f06e8e09545e4c00b to 282eb61165f6369cdf86e66980a13547--><g id="link_cc3b4e3dd2862d8f06e8e09545e4c00b_282eb61165f6369cdf86e66980a13547"><path codeLine="64" d="M1494,495.78 C1494,517.4 1494,552.57 1494,574.2 " fill="none" id="cc3b4e3dd2862d8f06e8e09545e4c00b-282eb61165f6369cdf86e66980a13547" style="stroke:#181818;stroke-width:1.0;"/><text fill="#000000" font-family="sans-serif" font-size="13" lengthAdjust="spacing" textLength="14" x="1495" y="540.5469">rw</text></g><!--link af7a7f0b3b2e57bd500b4dc604f1838f to cc3b4e3dd2862d8f06e8e09545e4c00b--><g id="link_af7a7f0b3b2e57bd500b4dc604f1838f_cc3b4e3dd2862d8f06e8e09545e4c00b"><path codeLine="65" d="M1683.3,141.6 C1635.55,225.65 1540.4534,393.0529 1507.8034,450.5329 " fill="none" id="af7a7f0b3b2e57bd500b4dc604f1838f-to-cc3b4e3dd2862d8f06e8e09545e4c00b" style="stroke:#181818;stroke-width:1.0;stroke-dasharray:7.0,7.0;"/><polygon fill="#181818" points="1504.84,455.75,1512.7632,449.9,1507.3095,451.4024,1505.8071,445.9487,1504.84,455.75" style="stroke:#181818;stroke-width:1.0;"/><text fill="#000000" font-family="sans-serif" font-size="13" lengthAdjust="spacing" textLength="23" x="1599" y="303.2569">use</text></g><!--link b9ecd9e1c451463d693c48a0a741e71a to 02333efa2bf4b0344924cb9dbec6e9b2--><g id="link_b9ecd9e1c451463d693c48a0a741e71a_02333efa2bf4b0344924cb9dbec6e9b2"><path codeLine="66" d="M1710,495.78 C1710,517.4 1710,552.57 1710,574.2 " fill="none" id="b9ecd9e1c451463d693c48a0a741e71a-02333efa2bf4b0344924cb9dbec6e9b2" style="stroke:#181818;stroke-width:1.0;"/><text fill="#000000" font-family="sans-serif" font-size="13" lengthAdjust="spacing" textLength="14" x="1711" y="540.5469">rw</text></g><!--link af7a7f0b3b2e57bd500b4dc604f1838f to b9ecd9e1c451463d693c48a0a741e71a--><g id="link_af7a7f0b3b2e57bd500b4dc604f1838f_b9ecd9e1c451463d693c48a0a741e71a"><path codeLine="67" d="M1710,141.6 C1710,225.65 1710,392.27 1710,449.75 " fill="none" id="af7a7f0b3b2e57bd500b4dc604f1838f-to-b9ecd9e1c451463d693c48a0a741e71a" style="stroke:#181818;stroke-width:1.0;stroke-dasharray:7.0,7.0;"/><polygon fill="#181818" points="1710,455.75,1714,446.75,1710,450.75,1706,446.75,1710,455.75" style="stroke:#181818;stroke-width:1.0;"/><text fill="#000000" font-family="sans-serif" font-size="13" lengthAdjust="spacing" textLength="23" x="1711" y="303.2569">use</text></g><!--link 7d3d8a3f1ed96ab758b9ab0a1819fa73 to 2f4ba364d89e6f84b282d915993ddf7f--><g id="link_7d3d8a3f1ed96ab758b9ab0a1819fa73_2f4ba364d89e6f84b282d915993ddf7f"><path codeLine="68" d="M1932,495.78 C1932,517.4 1932,552.57 1932,574.2 " fill="none" id="7d3d8a3f1ed96ab758b9ab0a1819fa73-2f4ba364d89e6f84b282d915993ddf7f" style="stroke:#181818;stroke-width:1.0;"/><text fill="#000000" font-family="sans-serif" font-size="13" lengthAdjust="spacing" textLength="14" x="1933" y="540.5469">rw</text></g><!--link af7a7f0b3b2e57bd500b4dc604f1838f to 7d3d8a3f1ed96ab758b9ab0a1819fa73--><g id="link_af7a7f0b3b2e57bd500b4dc604f1838f_7d3d8a3f1ed96ab758b9ab0a1819fa73"><path codeLine="69" d="M1737.44,141.6 C1786.52,225.65 1884.2748,393.0885 1917.8348,450.5685 " fill="none" id="af7a7f0b3b2e57bd500b4dc604f1838f-to-7d3d8a3f1ed96ab758b9ab0a1819fa73" style="stroke:#181818;stroke-width:1.0;stroke-dasharray:7.0,7.0;"/><polygon fill="#181818" points="1920.86,455.75,1919.7765,445.9609,1918.339,451.4321,1912.8678,449.9946,1920.86,455.75" style="stroke:#181818;stroke-width:1.0;"/><text fill="#000000" font-family="sans-serif" font-size="13" lengthAdjust="spacing" textLength="23" x="1834" y="303.2569">use</text></g><!--SRC=[bLNBRYD73BphAmOw9GRMwlV3m0PnODy21zWyBa5Wa4ssLuaqKYJPNY38luUQyNXb9zYEZxA7P1MhM0shrUPnlVoqxEzc_OQucr_Xl8DzHp6IPwyia7OsLvyy59UT2GcjrzZzDUlAPhtTzDmVEkizC4OejgOApdAYx2fMnGuJXTBzEZix8pmxcysMQxZZYswxsH_kTho_q7Os-sq6kyEoGZbqyyK3x1Qh9IwcB_vSBGWECABo25nGHql1HdIiQpAQ0Yg5eQOy-tjYyJlqTvkXnc26YYb3W5AqZnwrprWBs4HQ0Rra4WaGDBdYeIPqLiKSIzBMU5j98unCXkv7Djm_B7URVYsb5ztLvK-Ntrt-U7txyuVltpyJN2pkzxoxsC9-_xZPqRU42y8UrloATn7W0s2qINdErO5osbC1ufYvvA1jrZNgPv8VM2f7ZY60_AiODjPv7J9PBCub0kSPEBpag3nnICPKK5b53L5HPSQArjXIugZMxjZyNnHlVhYwlhs- -UNzThUX-t9ORlfND62x7I5fyKwoaGF6wcqGiRmg8bBqph2BhseMHqgtQscwultGm6Q1Pb67ubEnHXgn0mob-XmKuMUjR-wM_QUXXDbPfuI4M84YLJIw1h6AgwhA7zpBDK2D4Aj2YuPzHF9Y8aSbA5TrigaEQ-YFpKzyE_o-WDLssGy2VlLrDqzgc9uZAfUia3EYN8d8yhiOpJx8a8gdZFbG5aChaRslvpIkh484vc1Syb5ABH-n91qmW1MRdpQut-yM-u-muwSs7m_hrT2a52khjaGc1KEfgi29LVPY15U4uPUQx0zmM9RHXE8uogoBsCaTTvXjSGaKHATPXFbIcpNJShpNI9OIsAgPSW2CFianeWATT1QoLZJyt6UwcDldSzUYJHMzTSgo3UCuaDAIGTvXI4wVUkXyWL3-u7xSP8as07jTv7eHR641KQhSIAnuTDIBmYhkFaoL78MsyoZ1HTLgS5KiOLq8IPErlZHjgu8pJfIqIAnKZDvBc50WxvIiGTSNe_jdw-gWcEN88G4OXw2i4l16vAiXolR_4_42xvUh9-yamnYq3buS7tAXcWA7a9Cis_eNvpQgVFkmMTslnyIHax6MAnYi3fLrBXjNC1Do2PpHd1GFsfxM6Ya16nobp7BT3WK9POdOB1wiiPvU2CcNia-5w052BLMCG62AH1TaMTMibU_TEthNT4LtqSrtZ_DPyr4wFwVpys-QZygndqJuVDOAvW5ToteJkkP3yuIkENH2rmhS0LtBtXEwvXFnXAuvT4BNIlC1NVDs_Y-ivhG9LlCDEC9g1dlhWw5Bq_oj-1_DtyY9IS0ciKd0rj1fKwrtPK3NIg6teciEVJxDndCrsgiHSsz5rnmweMizW-Fk6a7wLdJDeK_e_W40]--></g></svg>